#!OML:ASF E:/inclinewalkrobotboard/Project1/Captureday1/Session1/subject1.ASF
:FULLY-SPECIFIED
:DEGREES
213
root 0 0 0 1.31383930682171 -3.8534454998874796 1.8326082420379057
lowerback 12.169246743097942 0.857641567242636 -0.05987925522514581
upperback -4.3861891418956445 1.094950100012147 -0.5683938781343661
thorax -11.618966663963317 0.4974962883303077 -0.8203039279011579
lowerneck -6.010520220360985 1.5942990521187068 4.46389655757189
upperneck 18.388837567693137 3.099583746683342 -8.197340973119063
head 6.7437787643506555 1.1345315877743034 -3.1432431547093094
rclavicle 1.9321080217375893E-15 -4.031445640506028E-16
rhumerus 21.2531774981964 15.771622509092582 -47.63761493983577
rradius 73.64695859264003
rwrist 26.82283270079827
rhand -34.660745554275586 -57.66392923453813
rfingers 7.125020000000014
rthumb -7.801629150923699 -87.60808866845429
lclavicle -4.3726674560820436E-16 -1.0195753793785389E-15
lhumerus 22.12460651393645 -12.529347044236767 43.863987073753066
lradius 71.11791561531535
lwrist -23.560705453041024
lhand -44.621654047767436 -71.13327810892781
lfingers 7.125020000000031
lthumb -17.401163144445388 -41.835266277672076
rfemur -25.231117744029014 -2.2180284433901587 17.2009075717244
rtibia 54.19605683761155
rfoot -29.698902874828082 -16.767222931976498
rtoes -18.43311967259137
lfemur -26.488415854483353 2.290834798996923 -17.627328630268657
ltibia 53.330039654469836
lfoot -32.59968596473989 -2.6140645966203198
ltoes -21.019928422950677
214
root 0 0 0 1.3136480857547648 -3.8557736489325305 1.8329334941464364
lowerback 12.169090374629915 0.8579247614394144 -0.0601997887111152
upperback -4.385620447755824 1.0952661550703742 -0.568262974451987
thorax -11.618205113636542 0.4976867925648881 -0.8200322423970978
lowerneck -6.009074683382821 1.5936175971297721 4.463357757230195
upperneck 18.387260179732245 3.098789475446753 -8.197015516298283
head 6.743084850967547 1.1341821662246536 -3.143148598572764
rclavicle 1.9194656720073035E-15 -3.97209217213376E-16
rhumerus 21.25252933938485 15.771355126924943 -47.63866960172068
rradius 73.64592764415315
rwrist 26.82217386703577
rhand -34.65998513136282 -57.66219393385638
rfingers 7.125020000000014
rthumb -7.800617844346684 -87.6061867374708
lclavicle -4.429191136557007E-16 -1.0185936135469391E-15
lhumerus 22.126266064922056 -12.527881280555608 43.86368591523541
lradius 71.1187925446512
lwrist -23.560900782183104
lhand -44.62181157032653 -71.13557387311843
lfingers 7.125020000000031
lthumb -17.401313953537592 -41.83856315167277
rfemur -25.23205015939525 -2.2171584451816804 17.20172781951412
rtibia 54.19392718087791
rfoot -29.696174501434736 -16.768494274447182
rtoes -18.430607004743127
lfemur -26.49509277539014 2.2917811465322484 -17.631346974189714
ltibia 53.3298494417155
lfoot -32.59999145698457 -2.6124348443758527
ltoes -21.006900813806347
215
root 0 0 0 1.313944422336614 -3.853943884670424 1.8326509813786527
lowerback 12.16926526205962 0.857704458098518 -0.05984864380944621
upperback -4.386091003655712 1.0950391747505936 -0.5683881052145435
thorax -11.618859469766967 0.49754174514735006 -0.8203297511455514
lowerneck -6.01028185237706 1.5941624386575024 4.4638036964933425
upperneck 18.388506767466037 3.099415102855624 -8.197260122020175
head 6.743641257219953 1.1344633703074307 -3.1432217498386583
rclavicle 1.932308781221108E-15 -4.034698050167399E-16
rhumerus 21.253290874196708 15.771827167563318 -47.63767938983696
rradius 73.64701252804511
rwrist 26.82278317528216
rhand -34.66051931472971 -57.66368602660418
rfingers 7.125020000000014
rthumb -7.801416751497461 -87.60788251630055
lclavicle -4.3601684809832325E-16 -1.019494829930074E-15
lhumerus 22.124257928103347 -12.529093311555313 43.864144129634376
lradius 71.11751863903152
lwrist -23.560653596150154
lhand -44.62161755617137 -71.13285282645555
lfingers 7.125020000000031
lthumb -17.401129472585154 -41.83484834937346
rfemur -25.23127127125494 -2.2181496871156385 17.20078974013971
rtibia 54.19636861941665
rfoot -29.69905154634199 -16.767250422273364
rtoes -18.432702869242767
lfemur -26.488855374371497 2.290881148690182 -17.627694457122008
ltibia 53.32996306372775
lfoot -32.60034269332108 -2.6129263415003408
ltoes -21.01722227854666
216
root 0 0 0 1.3138921465288864 -3.853659525623622 1.8326517257375832
lowerback 12.169264309429995 0.8576628839706869 -0.059894063674237774
upperback -4.386158994647701 1.0949758261119367 -0.5683984342692093
thorax -11.618940039135381 0.4975100543023793 -0.8203019203867201
lowerneck -6.010459519455257 1.5942602330687607 4.463852726466377
upperneck 18.388731842268 3.099536308773968 -8.19730521457074
head 6.74373739671687 1.1345127264341732 -3.143228792153219
rclavicle 1.932263060688146E-15 -4.0327470554750214E-16
rhumerus 21.253152606707935 15.771655447057208 -47.6377040777634
rradius 73.64692205893891
rwrist 26.822778554889243
rhand -34.660626819327376 -57.66374082779927
rfingers 7.125020000000014
rthumb -7.8015146782858515 -87.60789825501469
lclavicle -4.3762282820880087E-16 -1.0202359389326666E-15
lhumerus 22.124550470290075 -12.529296844943211 43.86398760111812
lradius 71.11785819550335
lwrist -23.56072948914116
lhand -44.6216290666656 -71.13318979063703
lfingers 7.125020000000031
lthumb -17.40113475878662 -41.83515673809295
rfemur -25.231158181109887 -2.2181009785093693 17.20089101601266
rtibia 54.196277222925346
rfoot -29.698850832865354 -16.767175321962643
rtoes -18.433126215959504
lfemur -26.488818164404513 2.290787718981894 -17.627581503420892
ltibia 53.329889354849
lfoot -32.60035648439861 -2.6134748096033746
ltoes -21.01851782148432
217
root 0 0 0 1.3138394246644536 -3.853445671192615 1.8326083087059835
lowerback 12.169246732105101 0.8576415818696931 -0.059879320657470037
upperback -4.386189122718553 1.094950109091873 -0.5683938922568451
thorax -11.618966630198118 0.4974962961499537 -0.8203039065368667
lowerneck -6.010520240446085 1.5942990257357847 4.463896476899709
upperneck 18.38883753459559 3.099583714531925 -8.197340869446775
head 6.743778761253315 1.1345315764974462 -3.1432431129713407
rclavicle 1.9321082116123276E-15 -4.0314512695952683E-16
rhumerus 21.25317733458379 15.77162239881678 -47.63761509220035
rradius 73.64695849772681
rwrist 26.82283256841354
rhand -34.66074561131051 -57.663928941400016
rfingers 7.125020000000014
rthumb -7.801629207124677 -87.60808839677223
lclavicle -4.3726600571228705E-16 -1.0195761145341778E-15
lhumerus 22.12460625715744 -12.529346822133073 43.86398702844499
lradius 71.117915402217
lwrist -23.5607055227988
lhand -44.62165395254647 -71.1332778983618
lfingers 7.125020000000031
lthumb -17.40116304800264 -41.83526603008896
rfemur -25.23111660213906 -2.218028549901681 17.200907077665157
rtibia 54.19605760546611
rfoot -29.698901698687024 -16.767221708342248
rtoes -18.43312285063447
lfemur -26.48841609638513 2.290834207400962 -17.627328637870217
ltibia 53.33003810228374
lfoot -32.599687143422024 -2.6140638696571368
ltoes -21.019928629441996
218
root 0 0 0 1.3138096751608224 -3.853392484722304 1.832593751339029
lowerback 12.169239738027484 0.8576363365898483 -0.059873761704478445
upperback -4.386196834557142 1.094943784900528 -0.5683901184310388
thorax -11.618972339714336 0.49749284685428063 -0.8203023825281606
lowerneck -6.010524464054782 1.5943115525896994 4.463914268596322
upperneck 18.388863178547552 3.0996005522797843 -8.19736269594982
head 6.743786663005496 1.1345379191306133 -3.143251217665707
rclavicle 1.9321220214113786E-15 -4.030588208305538E-16
rhumerus 21.25315667038727 15.771584716276243 -47.637578765199265
rradius 73.64694849298323
rwrist 26.822875165127883
rhand -34.660756822735124 -57.66396889222895
rfingers 7.125020000000014
rthumb -7.801639878718181 -87.60813013991421
lclavicle -4.373059073513097E-16 -1.019496401857083E-15
lhumerus 22.12463331662621 -12.529362056608106 43.863976325547625
lradius 71.11794446048918
lwrist -23.56071113934086
lhand -44.621665352910455 -71.1333423927108
lfingers 7.125020000000031
lthumb -17.401173758862548 -41.835328749093165
rfemur -25.231076367813028 -2.2180378111459715 17.20094244088359
rtibia 54.19606098560159
rfoot -29.698871960720894 -16.767216925076248
rtoes -18.433064833073416
lfemur -26.488350238844212 2.290874641362475 -17.62729522218188
ltibia 53.330224053431934
lfoot -32.599354481752265 -2.614365983894381
ltoes -21.0202259448497
